<svg xmlns="http://www.w3.org/2000/svg" viewBox="0 0 264 264" role="img" aria-label="Logo colegio">
  <rect width="264" height="264" fill="#ffffff"/>
  <path d="M0 264V172C0 77 77 0 172 0h92v88h-88c-49 0-88 39-88 88v88H0z" fill="#a61946"/>
  <g fill="#f4b400">
    <path d="M174 111c-5 33-10 71-16 128 14 3 27 3 41 0-6-57-11-95-16-128h-9z"/>
    <path d="M158 112c-10 31-23 60-41 89 9 10 20 18 33 25 6-42 12-78 18-114h-10z"/>
    <path d="M191 112c6 36 12 72 18 114 13-7 24-15 33-25-18-29-31-58-41-89h-10z"/>
    <path d="M144 116c-13 23-30 42-55 55-1 12 2 25 7 36 27-21 48-50 62-91h-14z"/>
    <path d="M205 116c14 41 35 70 62 91 5-11 8-24 7-36-25-13-42-32-55-55h-14z"/>
    <path d="M131 120c-13 15-29 25-50 31-5 9-8 19-9 30 27-7 49-25 67-61h-8z"/>
    <path d="M218 120c18 36 40 54 67 61-1-11-4-21-9-30-21-6-37-16-50-31h-8z"/>
  </g>
</svg>
